
      <svg data-logo="logo" xmlns="http://www.w3.org/2000/svg" viewBox="0 0 139.61000061035156 71.35" width="139.61000061035156" height="71.35">
        <g id="logogram" transform="
    translate(77.61000061035156, 0)
    rotate(0 31 20)
    
  "><path d="M7.02047 20.514L38.3369 12.1305H10.0945L7.02047 20.514ZM6.59954 21.662L5.2839 25.25H5.28572L2.09656 34.1495L38.5941 13.0969L6.59954 21.662ZM1.57495 35.605L0 40H13.0334L39.094 13.9633L1.57495 35.605ZM14.4489 40H25.1661L39.8062 14.666L14.4489 40ZM26.3219 40H34.0116L40.6711 15.1693L26.3219 40ZM35.0478 40H41.6376V15.4292L35.0478 40ZM42.6385 40H49.2288L42.6385 15.4273V40ZM50.1713 39.6503L52.3203 33.6534C52.6446 32.7483 52.7601 31.7948 52.673 30.8601L43.6055 15.1691L50.1713 39.6503ZM50.386 24.9025C51.4645 24.6247 52.4867 24.1867 53.421 23.6103L44.4732 14.6707L50.386 24.9025ZM54.262 23.0363C55.1738 22.3502 55.9801 21.5219 56.6455 20.5763L45.1804 13.9629L54.262 23.0363ZM57.1836 19.732C57.492 19.1957 57.7578 18.6284 57.9758 18.0338L58.5256 16.5346L45.6778 13.0952L57.1836 19.732ZM58.8713 15.5918L60.1404 12.1305H45.9415L58.8713 15.5918ZM60.5071 11.1305L61.6315 8.06389C61.78 7.65908 61.8821 7.25179 61.9412 6.84684L45.9397 11.1305H60.5071ZM62 5.79582C61.9487 4.25961 61.2986 2.82175 60.2459 1.76246L45.6788 10.1651L62 5.79582ZM59.4324 1.07701C58.4714 0.403271 57.2938 0 55.9925 0H54.4856L45.1777 9.29939L59.4324 1.07701ZM53.0701 0H49.4371L44.4744 8.58786L53.0701 0ZM48.2814 0H45.7756L43.6056 8.09119L48.2814 0ZM44.7394 0H42.6385V7.83342L44.7394 0ZM41.6376 0H39.5372L41.6376 7.83154V0ZM38.501 0H35.9953L40.6709 8.09095L38.501 0ZM34.8396 0H31.2046L39.8051 8.59257L34.8396 0ZM29.7891 0H22.9754L39.0967 9.29905L29.7891 0ZM10.4612 11.1305H38.3387L12.953 4.33465L10.4612 11.1305ZM13.3033 3.39316L38.5932 10.1633L20.9736 0H18.3885C16.1557 0 14.1524 1.3462 13.3033 3.39316Z" fill="#FF651D"/></g>
        <g id="logotype" transform="translate(-7.365, 43)"><path fill="#000000" d="M20.70 27L15.31 27L15.31 5.79L7.37 5.79L7.37 1.10L28.65 1.10L28.65 5.79L20.70 5.79L20.70 27ZM48.95 27L30.92 27L30.92 1.10L48.77 1.10L48.77 5.79L36.31 5.79L36.31 11.60L47.16 11.60L47.16 16.11L36.31 16.11L36.31 22.31L48.95 22.31L48.95 27ZM57.31 27L51.92 27L51.92 1.10L62.42 1.10Q65.29 1.10 67.34 2.11Q69.39 3.13 70.49 4.91Q71.59 6.70 71.59 9.04L71.59 9.04Q71.59 11.60 70.30 13.51Q69 15.41 66.62 16.29L66.62 16.29L72.26 27L66.27 27L61.13 17.02L57.31 17.02L57.31 27ZM62.35 5.75L62.35 5.75L57.31 5.75L57.31 12.61L62.35 12.61Q64.14 12.61 65.15 11.63Q66.17 10.65 66.17 9.22L66.17 9.22Q66.17 7.75 65.15 6.75Q64.14 5.75 62.35 5.75ZM79.71 27L74.04 27L82.86 1.10L90.04 1.10L98.86 27L93.19 27L91.54 21.93L81.39 21.93L79.71 27ZM86.47 6.42L82.90 17.23L90.04 17.23L86.47 6.42ZM112.12 27L104.95 27L96.13 1.10L101.80 1.10L108.55 21.71L115.27 1.10L120.94 1.10L112.12 27ZM133.89 27.35L133.89 27.35Q130.67 27.35 128.22 26.21Q125.77 25.07 124.11 23.17Q122.45 21.26 121.62 18.88Q120.80 16.50 120.80 14.01L120.80 14.01Q120.80 11.53 121.62 9.17Q122.45 6.80 124.11 4.91Q125.77 3.02 128.22 1.89Q130.67 0.75 133.89 0.75L133.89 0.75Q137.15 0.75 139.60 1.89Q142.05 3.02 143.69 4.91Q145.34 6.80 146.16 9.17Q146.98 11.53 146.98 14.01L146.98 14.01Q146.98 16.50 146.16 18.88Q145.34 21.26 143.69 23.17Q142.05 25.07 139.60 26.21Q137.15 27.35 133.89 27.35ZM133.89 22.48L133.89 22.48Q136.34 22.48 138.02 21.26Q139.70 20.04 140.54 18.09Q141.38 16.15 141.38 14.01L141.38 14.01Q141.38 11.88 140.54 9.95Q139.70 8.03 138.02 6.80Q136.34 5.58 133.89 5.58L133.89 5.58Q131.44 5.58 129.78 6.80Q128.12 8.03 127.28 9.95Q126.44 11.88 126.44 14.01L126.44 14.01Q126.44 16.15 127.28 18.09Q128.12 20.04 129.78 21.26Q131.44 22.48 133.89 22.48Z"/></g>
        
      </svg>
    